<svg xmlns="http://www.w3.org/2000/svg" xmlns:xlink="http://www.w3.org/1999/xlink" viewBox="0 0 2765.71 2765.71"><defs><style>.cls-1{fill:none;}.cls-1,.cls-3,.cls-4,.cls-5,.cls-6{stroke:#000;stroke-miterlimit:10;stroke-width:15px;}.cls-2{fill:#eaeaea;}.cls-3{fill:url(#Degradado_sin_nombre_114);}.cls-4{fill:url(#Degradado_sin_nombre_114-2);}.cls-5{fill:url(#Degradado_sin_nombre_114-3);}.cls-6{fill:#fff;opacity:0.9;}</style><linearGradient id="Degradado_sin_nombre_114" x1="1416.04" y1="-49.08" x2="1563.17" y2="1454.2" gradientUnits="userSpaceOnUse"><stop offset="0.29" stop-color="#07566c" stop-opacity="0.9"/><stop offset="1" stop-color="#0099bf"/></linearGradient><linearGradient id="Degradado_sin_nombre_114-2" x1="185.84" y1="2302.14" x2="1375.67" y2="1630.46" xlink:href="#Degradado_sin_nombre_114"/><linearGradient id="Degradado_sin_nombre_114-3" x1="2736.07" y1="2312.36" x2="1680.57" y2="1589.5" xlink:href="#Degradado_sin_nombre_114"/></defs><g id="Capa_3" data-name="Capa 3"><path class="cls-1" d="M225,2092.34" transform="translate(-117.15 -117.15)"/><path class="cls-1" d="M1635.16,91.6" transform="translate(-117.15 -117.15)"/><path class="cls-1" d="M317.75,793.35" transform="translate(-117.15 -117.15)"/><path class="cls-1" d="M308.24,2281" transform="translate(-117.15 -117.15)"/><path class="cls-1" d="M633.22,119.49" transform="translate(-117.15 -117.15)"/><path class="cls-1" d="M79.09-65.22" transform="translate(-117.15 -117.15)"/><path class="cls-1" d="M60.37,112.94" transform="translate(-117.15 -117.15)"/><path class="cls-1" d="M1289.57-235.68" transform="translate(-117.15 -117.15)"/><path class="cls-1" d="M1447.89,2826.36" transform="translate(-117.15 -117.15)"/><path class="cls-1" d="M492.53,734.77" transform="translate(-117.15 -117.15)"/><path class="cls-1" d="M1670.46,165" transform="translate(-117.15 -117.15)"/><path class="cls-1" d="M2720.84,858.81" transform="translate(-117.15 -117.15)"/><path class="cls-1" d="M2676,940.38" transform="translate(-117.15 -117.15)"/><path class="cls-1" d="M1273,1587.37" transform="translate(-117.15 -117.15)"/><path class="cls-1" d="M2717,865.91" transform="translate(-117.15 -117.15)"/><path class="cls-1" d="M2717,2343.6" transform="translate(-117.15 -117.15)"/><circle class="cls-2" cx="1382.85" cy="1382.85" r="1382.85"/><line class="cls-1" x1="2578.04" y1="803.83" x2="1580.86" y2="1379.56"/><line class="cls-1" x1="187.83" y1="798.66" x2="1187.11" y2="1375.6"/><line class="cls-1" x1="1382.85" y1="2659.26" x2="1382.85" y2="1716.84"/><path class="cls-3" d="M2653.54,764.45,1475.75,166,338.68,773.51l1013.9,578.57a295.54,295.54,0,0,1,295.32-1.36Z" transform="translate(-117.15 -117.15)"/><path class="cls-4" d="M1335.54,2776.41,312.69,2185.87,305,1111.59l912.35,526.74a236.41,236.41,0,0,0,118.21,204.75Z" transform="translate(-117.15 -117.15)"/><path class="cls-5" d="M2695.19,2165.85,1664.29,2758V1840.67a236.44,236.44,0,0,0,117.49-204.34l913.41-531.63Z" transform="translate(-117.15 -117.15)"/><circle class="cls-1" cx="1382.85" cy="1490.1" r="226.75"/><path class="cls-6" d="M1617.12,953.49c14.41-48.18,44.29-89.25,73.87-130.17h0c7.8-10.72,15.61-21.45,23.12-32.32a265.44,265.44,0,0,0,47.14-151.46c0-146.93-118.31-265.92-264.23-265.92s-264.23,119-264.23,265.77a265.08,265.08,0,0,0,47.14,151.46c7.51,10.87,15.31,21.59,23.12,32.32h0c29.73,40.92,59.6,82.14,73.87,130.16h240.2ZM1497,1146.78c66.36,0,120.1-54.07,120.1-120.81v-24.16h-240.2V1026C1376.92,1092.71,1430.66,1146.78,1497,1146.78Zm-120.1-507.39a24,24,0,1,1-48.05,0c0-93.47,75.22-169.13,168.15-169.13a24.16,24.16,0,0,1,0,48.32C1430.66,518.58,1376.92,572.64,1376.92,639.39Z" transform="translate(-117.15 -117.15)"/><path class="cls-6" d="M934,1659.73,866.89,1727l150.92,150.92,67.14-67.14a67.44,67.44,0,0,0,0-95.47l-55.45-55.57a67.44,67.44,0,0,0-95.47,0Zm-96.91,92L826,1755.08l-173.7,52.07a77.11,77.11,0,0,0-51,49.43l-106.8,318.47a38.49,38.49,0,0,0,8.8,39l185.15-185a57.9,57.9,0,1,1,27.24,27.24L530.58,2241.46a38.28,38.28,0,0,0,39.06,8.8l318.59-106.8a77.32,77.32,0,0,0,49.42-51l52.07-173.7,3.38-11.09Z" transform="translate(-117.15 -117.15)"/><path class="cls-6" d="M1904.75,1705.55v66.22c0,24.42,13.64,44.15,30.51,44.15h61V1705.55c0-36.56-20.5-66.22-45.76-66.22S1904.75,1669,1904.75,1705.55Zm106.77-66.22c9.54,18.48,15.26,41.38,15.26,66.22V2125c0,48.7,27.36,88.3,61,88.3s61-39.6,61-88.3v-7.31c0-44.7,25.07-81,56-81h157.58v-264.9c0-73.12-41-132.44-91.52-132.44Zm335.57,618.08c59,0,106.77-69.12,106.77-154.52,0-12.14-6.87-22.08-15.26-22.08H2204.76c-14,0-25.46,16.42-25.46,36.84V2125c0,73.12-41,132.45-91.51,132.45h259.3Z" transform="translate(-117.15 -117.15)"/></g></svg>